<svg width="75" height="75" xmlns="http://www.w3.org/2000/svg" viewBox="0 0 1024 1024">
<path fill="#252525" opacity="1.000000" stroke="none" 
	d="
M430.770569,593.104736 
	C423.347351,593.483459 416.427216,594.369507 409.398041,593.384521 
	C394.392853,591.281921 391.914124,581.360657 394.404510,569.484741 
	C395.218414,565.603455 398.523712,563.300964 402.167755,562.342834 
	C411.749329,559.823486 416.130402,553.388550 418.159821,544.039795 
	C422.927460,522.076416 426.347290,499.935364 428.849609,477.611664 
	C430.258636,465.041260 431.625610,452.500977 432.114349,439.843384 
	C432.472015,430.580597 429.800049,423.978912 420.281250,421.073975 
	C415.423828,419.591553 413.006744,415.472961 413.134216,410.675140 
	C413.301819,404.366852 415.114075,398.412781 421.090881,394.890381 
	C425.776703,392.128845 430.958191,390.848053 436.369629,390.788483 
	C472.347687,390.392548 508.335388,389.472076 544.300903,390.888824 
	C563.021423,391.626251 580.488159,396.836273 594.846191,409.553528 
	C606.225708,419.632660 612.910156,432.752716 615.652893,447.445557 
	C621.920959,481.024933 618.780212,513.478027 601.467285,543.631042 
	C587.339661,568.236450 565.567444,582.242737 538.269287,588.465088 
	C525.362610,591.407043 512.328125,592.368835 499.132172,592.277832 
	C479.138428,592.139954 459.143005,592.246338 439.148285,592.255798 
	C436.484375,592.257080 433.808472,592.176697 430.770569,593.104736 
M495.396790,516.873718 
	C495.071899,522.022461 494.813477,527.176514 494.404175,532.318542 
	C493.956940,537.937622 492.975159,543.510803 494.343597,549.172729 
	C495.324249,553.230286 497.318451,555.645020 501.750946,555.851013 
	C508.862671,556.181763 515.297546,554.539429 520.821045,549.921875 
	C529.482361,542.681152 534.205322,533.045288 537.101379,522.427429 
	C543.521118,498.890747 545.156738,474.913940 542.499329,450.732422 
	C541.567444,442.252228 538.827393,434.029785 531.790710,428.266479 
	C525.704834,423.281982 518.582275,421.969727 511.142120,424.168335 
	C505.314941,425.890381 502.944397,430.889404 502.430542,436.462006 
	C500.888763,453.182404 499.684326,469.933563 498.262299,486.665436 
	C497.432129,496.433563 496.437653,506.187744 495.396790,516.873718 
z"/>
<path fill="#000000" opacity="1.000000" stroke="none" 
	d="
M804.356445,501.740173 
	C820.709045,525.728394 812.767334,562.773560 788.058838,579.469727 
	C775.195007,588.162170 760.679932,591.806580 745.561279,592.028564 
	C712.255188,592.517639 678.937378,592.263306 645.624634,592.175659 
	C639.456665,592.159424 633.344177,591.106506 627.578979,588.770081 
	C620.836548,586.037659 616.952698,580.402039 616.999023,573.821411 
	C617.042908,567.598633 620.359802,562.480164 627.768982,560.493896 
	C639.094666,557.457520 639.427856,547.875916 641.510925,539.409729 
	C646.283203,520.014221 648.920593,500.215393 651.398987,480.434235 
	C653.321594,465.089081 654.250732,449.628113 654.112122,434.125549 
	C654.064758,428.837677 651.850525,425.236847 647.001465,423.204620 
	C646.234558,422.883209 645.499817,422.485413 644.748779,422.125885 
	C633.752380,416.862152 632.485535,403.374207 642.385681,396.063660 
	C647.061951,392.610535 652.458191,390.785461 658.255676,390.778320 
	C692.733337,390.735962 727.216492,390.466522 761.686035,391.014130 
	C773.974792,391.209351 785.807068,394.924133 795.198364,403.505524 
	C812.700073,419.498016 814.278992,446.554138 799.351685,465.472687 
	C795.176147,470.764771 789.961365,474.885834 785.201111,479.522949 
	C781.382202,483.243164 781.518982,484.770142 786.166199,487.406433 
	C792.865295,491.206635 799.343872,495.240662 804.356445,501.740173 
M738.556030,533.986816 
	C739.199158,527.657227 739.083923,521.361023 737.822571,515.101318 
	C736.936584,510.704346 734.508118,507.642151 730.424377,505.703217 
	C726.951477,504.054291 723.314697,504.180939 719.663147,504.165955 
	C712.900208,504.138214 712.055359,504.576294 711.589600,511.285950 
	C710.587708,525.720520 710.000488,540.183411 709.167603,554.630310 
	C708.932190,558.713379 711.015991,560.480896 714.760864,560.617554 
	C723.048462,560.919983 729.702332,557.957397 734.078125,550.632324 
	C736.976135,545.781067 737.743591,540.342834 738.556030,533.986816 
M718.257263,439.481689 
	C717.454834,447.915314 716.719849,456.356079 715.828369,464.780273 
	C715.132507,471.356293 717.113525,473.575989 723.590759,472.668030 
	C730.132874,471.750977 734.260376,467.554077 736.909729,461.813873 
	C741.081787,452.774658 741.416687,443.117798 740.859741,433.434906 
	C740.302551,423.747314 735.100342,419.512329 725.395020,420.108337 
	C722.280212,420.299591 720.352905,421.537628 719.883728,424.706848 
	C719.203247,429.303497 718.133057,433.855408 718.257263,439.481689 
z"/>
<path fill="#000000" opacity="1.000000" stroke="none" 
	d="
M345.334961,573.383301 
	C329.754150,585.052795 312.279297,591.189270 293.627747,594.133118 
	C276.963501,596.763306 260.407898,596.207886 244.401398,590.274536 
	C227.804779,584.122437 214.356216,574.542847 211.403015,555.617249 
	C209.288132,542.063965 213.064987,529.857666 224.069427,521.202393 
	C235.430359,512.266785 248.383102,508.922241 262.500458,514.366028 
	C274.796539,519.107483 281.181396,531.528931 278.074646,544.224792 
	C277.562012,546.319702 276.845947,548.373047 276.104065,550.401733 
	C274.896729,553.703369 272.974854,557.311890 277.093719,559.697937 
	C280.989319,561.954651 285.206482,561.641174 288.723572,558.571106 
	C293.541626,554.365417 295.814087,548.580261 297.804199,542.726379 
	C302.761200,528.145203 304.944489,512.974304 306.479340,497.763489 
	C308.617981,476.569122 310.253845,455.317108 309.689117,433.970917 
	C309.511627,427.260651 307.585815,425.199036 301.092499,425.094330 
	C295.708557,425.007477 289.857422,425.496796 287.669830,419.050720 
	C285.302277,412.074371 286.689880,405.532013 291.901306,400.109741 
	C294.978943,396.907654 298.984711,395.227112 303.116882,393.798553 
	C311.564270,390.878082 320.431702,390.132629 329.187531,389.564392 
	C348.633148,388.302307 368.137207,387.473419 387.407471,391.726410 
	C391.335602,392.593323 395.109161,393.945709 398.533051,396.066650 
	C404.555695,399.797424 406.052063,405.522766 405.147705,412.108917 
	C404.298309,418.294678 399.894623,420.371246 394.389252,421.457184 
	C386.868347,422.940704 383.444275,426.916504 382.434418,435.405884 
	C380.606842,450.768616 379.076294,466.166534 377.282166,481.533478 
	C375.431458,497.385071 373.601501,513.243042 371.421234,529.051208 
	C368.912628,547.240051 360.019684,561.851562 345.334961,573.383301 
z"/>
</svg>